<?xml version="1.0" encoding="UTF-8"?>
<svg version="1.1" viewBox="0 0 2048 2048" width="512" height="512" xmlns="http://www.w3.org/2000/svg">
<path transform="translate(960)" d="m0 0h136v1l56 6 41 6 38 7 44 10 40 11 26 8 31 11 16 6 33 13 38 17 23 11 38 20 24 14 20 12 20 13 15 10 34 24 42 33 15 13 14 12 12 11 16 15 8 7 12 12 7 8 14 14 7 8 12 13 7 8 12 14 11 14 12 15 10 13 26 36 17 26 15 24 15 26 9 16 17 33 14 29 15 35 13 33 15 43 15 51 10 42 9 46 7 49 4 36 1 11 2 1v154h-2l-4 40-6 45-6 34-8 37-10 40-15 49-13 37-10 25-11 26-11 24-14 29-15 29-11 19-13 22-14 22-18 27-10 14-13 18-22 28-9 11-13 15-11 13-3-4-13-47-12-36-9-25-12-28-11-24-19-38-13-22-12-20-14-21-14-20-8-11-11-14-14-17-7-9-12-13-11-12-15-16-15-15-8-7-8-8-11-9-9-8-11-9-12-10-11-8-16-12-39-26-22-13-21-12-35-18-38-17-43-16v-4l18-13 15-11 16-12 9-9 8-7 16-15 13-13 8-10 8-9 8-10 9-11 13-20 11-17 8-13 11-22 13-28 12-34 8-25 7-30 5-32 3-32v-48l-2-31-6-39-5-23-8-30-15-41-19-40-12-21-12-19-12-17-13-17-8-10-24-26-14-14-8-7-12-11-20-15-19-14-28-17-16-9-22-11-18-8-30-11-26-8-32-8-33-5-31-3-36-1-39 2-38 5-24 5-34 9-34 12-25 11-32 16-23 14-15 10-32 24-11 10-8 7-16 15-16 17-11 12-13 17-15 20-7 11-13 21-10 18-8 17-7 14-14 37-7 23-8 32-6 37-3 33-1 23v13l1 23 4 38 6 33 7 26 12 36 8 21 17 35 10 19 15 23 10 15 9 12 12 14 11 13 9 11 17 16 12 11 13 12 19 14 18 13 11 8v2l-20 8-28 11-27 12-29 14-24 13-24 14-22 14-19 13-17 12-18 14-16 13-11 9-15 14-8 7-5 5h-2v2h-2v2h-2v2h-2v2h-2v2h-2v2h-2v2h-2v2h-2v2h-2v2h-2l-2 4h-2l-2 4-13 13-9 11-9 10-18 22-12 16-14 19-11 16-15 24-14 23-15 29-10 19-16 36-11 28-10 28-8 26-12 44h-4l-8-11-10-11-9-11-13-16-24-32-14-20-14-21-11-17-12-20-15-26-15-28-17-34-13-29-15-37-8-21-12-36-8-26-11-41-11-51-8-49-6-51-2-22-1-3v-133l2-14 4-39 5-37 6-35 7-34 8-34 13-45 18-53 12-30 11-26 16-35 10-19 10-20 28-48 14-22 10-15 24-34 9-12 11-14 14-18 2-3h2l2-4 9-10 9-11 24-26 7-7 1-2h2l2-4 20-20 8-7 9-9 8-7 13-12 11-9 15-13 13-10 14-11 16-12 17-12 18-13 18-11 9-6 21-13 26-15 24-13 38-19 36-16 43-17 50-17 49-14 43-10 50-9 42-6 36-4z"/>
<path transform="translate(1e3 1216)" d="m0 0h48l44 3 37 5 30 5 55 14 35 12 32 12 50 24 20 11 20 12 18 11 14 10 40 30 12 11 8 7 12 11 20 18 7 8 8 8 7 8 13 14 13 17 11 14 14 19 11 17 13 20 12 21 12 23 8 16 9 20 13 32 15 45 12 48 7 41 3 19v5l-16 13-11 8-14 11-18 14-18 13-21 13-15 10-25 16-16 9-28 15-42 22-54 23-27 11-58 19-30 9-44 11-45 9-47 7-68 8h-125l-85-10-43-7-47-10-38-10-65-21-21-7-40-17-35-15-26-13-22-12-27-14-21-13-23-15-17-11-21-14-18-14-13-10-18-14-17-13-1-1v-7l9-54 12-48 8-26 15-41 9-20 17-36 14-25 18-30 24-34 12-16 11-13 9-11 9-10 7-8 4-5 8-7 30-30 11-9 13-11 14-11 10-8 20-14 30-20 45-25 16-8 43-19 28-10 31-10 49-12 35-6 40-5z"/>
<path transform="translate(1012,377)" d="m0 0h22l30 2 32 5 28 7 24 8 20 8 16 8 19 10 21 13 16 12 13 10 13 12 8 7 11 11 7 8 12 14 14 19 11 17 12 21 13 27 11 30 7 26 5 24 3 23 2 31-1 28-2 23-5 29-8 31-11 30-11 24-10 19-14 22-14 19-8 10-12 13-11 12-15 14-11 9-13 10-17 12-24 14-26 13-31 12-28 8-23 5-29 4-15 1h-39l-25-2-30-5-30-8-31-11-28-13-18-10-22-14-18-14-11-9-16-15-5-4-7-8-14-15-10-13-11-15-12-19-9-16-14-29-10-28-6-21-5-23-4-26-2-27v-25l2-27 5-31 8-32 7-21 10-24 14-28 12-19 9-13 9-12 8-10 9-10 7-8 17-17 8-7 11-9 16-12 15-10 24-14 27-13 27-10 20-6 21-5 32-5z"/>
<path transform="translate(952,2047)" d="m0 0h5v1h-5z"/>
<path transform="translate(0,1094)" d="m0 0"/>
</svg>
